# xmcd CD database file
#
# Track frame offsets:
#	187
#	12245
#	25757
#	40272
#	49710
#	62867
#	77607
#	90402
#	103287
#	116145
#	130237
#	145270
#	159275
#	175535
#	191565
#	202077
#	217832
#	233455
#	245267
#	259400
#	276375
#	288675
#	302415
#	318295
#	328610
#
# Disc length: 4565 seconds
#
# Revision: 0
# Processed by: cddbd v1.4PL0 Copyright (c) Steve Scherf et al.
# Submitted via: CDex 1.40Beta9
#
DISCID=5e11d319
DTITLE=George Strait - 25 #1s
DYEAR=2001
DGENRE=Country
TTITLE0=Fool Hearted Memory
TTITLE1=A Fire I Can't Put Out
TTITLE2=You Look So Good In Love
TTITLE3=Right Or Wrong
TTITLE4=Let's Fall To Pieces Together
TTITLE5=Does Fort Worth Ever Cross Your Mind
TTITLE6=The Chair
TTITLE7=Nobody In His Right Mind
TTITLE8=It Ain't Cool To Be Crazy About You
TTITLE9=Ocean Front Property
TTITLE10=All My Ex's Live In Texas
TTITLE11=Am I Blue
TTITLE12=Famous Last Words Of A Fool
TTITLE13=Baby Blue
TTITLE14=If You Ain't Lovin' (You Ain't Livin')
TTITLE15=Baby's Gotten Good At Goodbye
TTITLE16=What's Going On In Your World
TTITLE17=Ace In The Hole
TTITLE18=Love Without End, Amen
TTITLE19=I've Come To Expect It From You
TTITLE20=If I Know Me
TTITLE21=You Know Me Better Than That
TTITLE22=I Cross My Heart
TTITLE23=Heartland
TTITLE24=Easy Come, Easy Go
EXTD=YEAR: 2001 ID3G: 2
EXTT0=
EXTT1=
EXTT2=
EXTT3=
EXTT4=
EXTT5=
EXTT6=
EXTT7=
EXTT8=
EXTT9=
EXTT10=
EXTT11=
EXTT12=
EXTT13=
EXTT14=
EXTT15=
EXTT16=
EXTT17=
EXTT18=
EXTT19=
EXTT20=
EXTT21=
EXTT22=
EXTT23=
EXTT24=
PLAYORDER=
